<?xml version="1.0" standalone="no"?>
<!DOCTYPE svg PUBLIC "-//W3C//DTD SVG 20010904//EN"
 "http://www.w3.org/TR/2001/REC-SVG-20010904/DTD/svg10.dtd">
<svg version="1.0" xmlns="http://www.w3.org/2000/svg"
 width="512.000000pt" height="512.000000pt" viewBox="0 0 512.000000 512.000000"
 preserveAspectRatio="xMidYMid meet">

<g transform="translate(0.000000,512.000000) scale(0.100000,-0.100000)"
fill="#000000" stroke="none">
<path d="M1905 4431 c-46 -12 -88 -36 -124 -73 -62 -62 -66 -77 -69 -260 l-4
-167 -497 -3 -497 -3 -60 -30 c-65 -33 -115 -95 -134 -165 -6 -22 -9 -122 -8
-236 l3 -197 805 -362 805 -361 6 55 c5 43 13 60 33 78 l27 23 369 0 369 0 27
-23 c20 -18 28 -35 33 -79 l6 -56 805 362 805 361 3 198 c1 115 -2 215 -8 237
-19 70 -69 132 -134 165 l-60 30 -498 3 -498 3 0 147 c0 81 -5 164 -11 186
-13 46 -78 120 -134 149 -40 22 -44 22 -685 24 -355 1 -658 -2 -675 -6z m1309
-190 c26 -24 26 -27 26 -168 l0 -143 -680 0 -680 0 0 143 c0 136 1 145 23 164
12 11 29 23 37 26 8 3 293 5 632 4 l616 -2 26 -24z"/>
<path d="M510 2013 c0 -1217 -3 -1161 65 -1240 19 -23 56 -52 83 -65 l47 -23
1855 0 1855 0 47 23 c27 13 64 42 83 65 68 79 65 23 65 1240 0 604 -4 1097 -9
1095 -4 -1 -369 -165 -809 -363 l-802 -360 0 -172 c0 -187 -6 -215 -51 -239
-41 -21 -717 -21 -758 0 -45 24 -51 52 -51 239 l0 172 -801 360 c-440 198
-805 362 -810 363 -5 2 -9 -442 -9 -1095z"/>
<path d="M2302 2348 l3 -213 255 0 255 0 3 213 2 212 -260 0 -260 0 2 -212z"/>
</g>
</svg>
